<svg fill="#046C9A" xmlns="http://www.w3.org/2000/svg" xmlns:xlink="http://www.w3.org/1999/xlink" version="1.1" viewBox="3 35 94 30" xml:space="preserve"><path fill-rule="evenodd" clip-rule="evenodd" d="M36.736,56.074c0.838-0.244,1.709-0.307,2.567-0.425  c1.277-0.176,2.563-0.292,3.846-0.431c0.053-0.006,0.108,0.016,0.166,0.1c-2.176,0.273-4.352,0.546-6.528,0.819  C36.77,56.116,36.753,56.095,36.736,56.074z"></path><path fill-rule="evenodd" clip-rule="evenodd" d="M92.527,55.925c-0.161,0.123-0.311,0.269-0.486,0.364  c-0.461,0.251-1.003,0.1-1.169-0.379c-0.146-0.419-0.394-0.41-0.742-0.363c-0.719,0.096-1.442,0.158-2.164,0.23  c-0.096,0.01-0.199,0.019-0.335-0.114c0.919-0.098,1.778-0.204,2.641-0.272c0.314-0.024,0.463-0.128,0.521-0.446  c0.063-0.344,0.201-0.675,0.501-0.895c0.321-0.235,0.675-0.366,1.057-0.162c0.35,0.188,0.563,0.809,0.485,1.277  c-0.046,0.281-0.222,0.504-0.312,0.764C92.523,55.929,92.527,55.925,92.527,55.925z M92.673,54.962  c0.006-0.366-0.222-0.625-0.562-0.639c-0.379-0.015-0.83,0.465-0.854,0.907c-0.015,0.295,0.265,0.577,0.575,0.581  C92.332,55.818,92.664,55.482,92.673,54.962z"></path><path fill-rule="evenodd" clip-rule="evenodd" d="M25.358,61.027c-3.022,0.001-5.432-2.384-5.407-5.393  c0.025-2.965,2.276-5.36,5.389-5.378c3.083-0.017,5.396,2.412,5.414,5.405C30.771,58.634,28.354,61.027,25.358,61.027z   M21.559,52.18c-0.308,0.194-0.424,0.543-0.646,0.807c-0.06,0.071-0.092,0.176,0.026,0.213c0.554,0.171,1.04,0.585,1.677,0.465  c0.366-0.068,0.73-0.092,1.097,0.31c-0.254-0.453-0.508-0.641-0.927-0.667c-0.436-0.028-0.813-0.29-1.19-0.506  c-0.147-0.084-0.213-0.199-0.022-0.33c0.081-0.056,0.139-0.145,0.208-0.218c0.396-0.188,0.776-0.396,0.997-0.8  c0.13-0.236,0.364-0.334,0.589-0.425c0.214-0.086,0.416-0.044,0.439,0.24c0.037,0.458,0.202,0.905,0.071,1.38  c-0.093,0.34-0.03,0.446,0.24,0.679c-0.047-0.393,0.042-0.68,0.306-0.974c-0.204,0.546-0.182,1.051,0.207,1.527  c0.176,0.217,0.241,0.539,0.639,0.292c0.18-0.111,0.338,0.069,0.508,0.315c0.152-0.707,0.971-1.119,0.484-1.937  c-0.072,0.123,0.009,0.195,0.018,0.277c0.043,0.396-0.453,1.108-0.788,1.127c-0.635,0.036-1.166-0.631-1.031-1.267  c0.021-0.101,0.201-0.252-0.026-0.347c-0.01-0.487-0.029-0.976-0.025-1.463c0.002-0.238-0.079-0.314-0.308-0.25  C23.107,50.906,22.219,51.356,21.559,52.18z M28.799,55.494c-0.039-0.092-0.128-0.1-0.178-0.049  c-0.355,0.366-0.767,0.25-1.179,0.151c-0.528-0.127-0.739-0.669-0.413-1.101c0.281-0.371,0.59-0.714,1.253-0.577  c-0.547-0.232-0.905-0.171-1.201,0.209c-0.113,0.146-0.293,0.239-0.412,0.382c-0.103,0.123-0.326,0.28-0.089,0.447  c0.311,0.22,0.233,0.436,0.017,0.689c0.744,0.104,1.463,0.546,2.11-0.143c0.013-0.014,0.055,0,0.083,0.002  c-0.137,0.372-0.498,0.466-0.83,0.621c0.207,0.148,0.395,0.152,0.567,0.05c0.436-0.261,0.931-0.313,1.41-0.422  c0.256-0.059,0.378,0.012,0.382,0.298c0.012,0.785-0.278,1.478-0.639,2.147c-0.128,0.238-0.323,0.269-0.539,0.077  c-0.306-0.273-0.616-0.566-0.771-0.937c-0.211-0.507-0.627-0.623-1.08-0.733c0.323,0.161,0.692,0.279,0.725,0.721  c0.05,0.674,0.497,1.122,0.881,1.611c0.164,0.209,0.273,0.191,0.435-0.001c0.896-1.068,1.239-2.311,1.188-3.684  c-0.008-0.231-0.117-0.263-0.314-0.198C29.74,55.208,29.269,55.349,28.799,55.494z M24.536,58.628  c0.349-0.351,0.233-0.846,0.389-1.249c0.258-0.667-0.799-0.31-0.633-0.868c0,0-0.07-0.023-0.108-0.032  c-0.012-0.003-0.028,0.006-0.042,0.012c-0.342,0.155-0.697,0.288-1.022,0.473c-0.248,0.142-0.292,0.318-0.266,0.632  c0.179-0.396,0.762-0.767,1.176-0.728c0.278,0.026,0.502,0.183,0.589,0.444c0.175,0.522-0.023,1.049-0.499,1.409  c0.155,0.03,0.259-0.138,0.405-0.084c-0.509,0.373-0.881,0.856-1.203,1.397c-0.148,0.249-0.129,0.336,0.131,0.433  c1.267,0.474,2.53,0.444,3.797,0.007c0.214-0.074,0.28-0.178,0.154-0.384c-0.319-0.519-0.591-1.07-1.195-1.341  c-0.261-0.116-0.451-0.319-0.484-0.626c-0.038-0.344-0.075-0.687-0.111-1.021c-0.072,0.473,0.082,0.944,0.076,1.423  c0,0.043,0.001,0.097,0.025,0.127c0.171,0.216,0.364,0.414,0.518,0.641c0.171,0.252,0.314,0.523,0.454,0.794  c0.119,0.23,0.052,0.374-0.218,0.441c-0.748,0.188-1.495,0.184-2.244,0.021c-0.236-0.051-0.313-0.196-0.205-0.418  c0.166-0.34,0.264-0.745,0.558-0.979c0.465-0.368,0.492-0.858,0.521-1.365c0.016-0.261,0.003-0.522,0.003-0.784  c-0.051,0.359-0.077,0.72-0.122,1.079C24.947,58.35,24.879,58.605,24.536,58.628z M23.448,55.958  c-0.445,0.072-0.901,0.27-1.253-0.122c-0.454-0.504-1.073-0.598-1.667-0.776c-0.256-0.077-0.336-0.008-0.348,0.253  c-0.057,1.22,0.248,2.333,0.949,3.333c0.42,0.6,0.425,0.597,0.89,0.016c0.136-0.17,0.277-0.338,0.397-0.52  c0.251-0.378,0.237-0.825,0.383-1.255c-0.254,0.01-0.348,0.13-0.388,0.27c-0.142,0.493-0.543,0.782-0.87,1.127  c-0.167,0.178-0.336,0.214-0.488-0.045c-0.396-0.675-0.654-1.392-0.691-2.18c-0.01-0.224,0.091-0.342,0.312-0.305  c0.357,0.062,0.761,0.061,1.056,0.236C22.339,56.354,22.891,56.185,23.448,55.958z M26.539,53.435  c0.193-0.209,0.369-0.427,0.29-0.707c-0.132-0.47-0.021-0.925,0.036-1.385c0.041-0.335,0.227-0.41,0.523-0.281  c0.679,0.296,1.248,0.742,1.745,1.283c0.178,0.194,0.15,0.376-0.089,0.493c-0.365,0.178-0.711,0.442-1.123,0.462  c-0.532,0.025-0.79,0.347-1.014,0.748c0.24-0.205,0.447-0.515,0.815-0.412c0.71,0.198,1.297-0.168,1.924-0.364  c0.181-0.057,0.25-0.13,0.134-0.308c-0.763-1.169-1.794-1.974-3.156-2.324c-0.106-0.027-0.317-0.112-0.312,0.094  c0.014,0.568-0.266,1.145,0.082,1.709C26.572,52.733,26.724,53.067,26.539,53.435z M25.962,52.018c0.005,0,0.011-0.001,0.016-0.001  c0-0.088,0-0.175,0-0.263c-0.003-0.47-0.068-0.507-0.681-0.521c-0.382-0.008-0.623,0.074-0.579,0.531  c0.032,0.331,0.02,0.663-0.076,0.993c-0.087,0.299,0.19,0.886,0.469,1c0.187,0.076,0.43,0.117,0.566-0.071  c0.223-0.311,0.506-0.609,0.347-1.065C25.958,52.436,25.98,52.22,25.962,52.018z M24.49,57.637c0.003-0.463-0.298-0.684-0.736-0.54  c-0.354,0.115-0.673,0.259-0.757,0.684c-0.037,0.186-0.169,0.333-0.294,0.477c-0.479,0.55-0.471,0.61,0.156,1.025  c0.06,0.04,0.126,0.071,0.185,0.113c0.193,0.138,0.328,0.112,0.451-0.107c0.162-0.289,0.317-0.6,0.597-0.791  C24.407,58.281,24.482,57.98,24.49,57.637z M22.674,55.554c0.176-0.041,0.333-0.07,0.486-0.115c0.481-0.143,0.587-0.47,0.304-0.877  c-0.228-0.326-0.484-0.577-0.925-0.527c-0.162,0.019-0.31-0.045-0.461-0.105c-0.71-0.284-0.712-0.28-0.936,0.468  c-0.017,0.056-0.03,0.112-0.048,0.168c-0.087,0.265,0,0.412,0.281,0.464c0.372,0.068,0.739,0.151,1.036,0.42  C22.479,55.511,22.593,55.523,22.674,55.554z M26.214,57.644c0.003,0.444,0.058,0.535,0.365,0.824  c0.167,0.157,0.315,0.341,0.446,0.53c0.417,0.604,0.413,0.607,1,0.147c0.046-0.036,0.085-0.081,0.132-0.114  c0.228-0.16,0.239-0.326,0.049-0.535c-0.264-0.29-0.491-0.604-0.62-0.986c-0.073-0.217-0.765-0.542-0.973-0.465  C26.334,57.148,26.148,57.344,26.214,57.644z M27.915,55.533c0.208,0.018,0.326-0.039,0.432-0.119  c0.188-0.143,0.403-0.229,0.625-0.301c0.779-0.255,0.78-0.255,0.488-1.042c-0.01-0.027-0.024-0.053-0.033-0.08  c-0.077-0.241-0.201-0.328-0.452-0.188c-0.294,0.164-0.623,0.255-0.958,0.265c-0.47,0.014-0.699,0.328-0.875,0.683  c-0.133,0.269-0.046,0.518,0.256,0.633C27.586,55.454,27.786,55.497,27.915,55.533z M26.632,53.882  c0.343-0.529,0.768-0.883,1.418-0.893c0.094-0.001,0.185-0.079,0.28-0.113c0.243-0.086,0.229-0.226,0.08-0.388  c-0.238-0.259-0.539-0.439-0.838-0.612c-0.126-0.072-0.267-0.261-0.42-0.141c-0.133,0.104-0.175,0.335-0.13,0.482  C27.217,52.855,27.019,53.379,26.632,53.882z M27.476,56.331c0.586,0.168,1.045,0.443,1.229,1.057c0.03,0.1,0.15,0.173,0.227,0.26  c0.15,0.169,0.285,0.14,0.362-0.056c0.128-0.322,0.249-0.649,0.339-0.983c0.039-0.145,0.167-0.349,0.048-0.448  c-0.139-0.114-0.385-0.074-0.532,0.025C28.616,56.546,28.071,56.551,27.476,56.331z M23.244,56.371  c-0.602,0.253-1.158,0.159-1.699-0.17c-0.071-0.043-0.166-0.052-0.251-0.063c-0.227-0.033-0.322,0.037-0.266,0.29  c0.063,0.284,0.118,0.569,0.239,0.835c0.082,0.181,0.1,0.478,0.301,0.491c0.234,0.016,0.354-0.26,0.486-0.446  c0.033-0.047,0.056-0.103,0.073-0.158c0.094-0.304,0.299-0.484,0.603-0.573C22.907,56.524,23.073,56.44,23.244,56.371z   M25.347,57.97c0.031,0.543-0.111,1.002-0.554,1.354c-0.117,0.094-0.179,0.261-0.255,0.399c-0.067,0.122-0.05,0.24,0.104,0.267  c0.472,0.081,0.947,0.104,1.42,0.002c0.15-0.033,0.178-0.14,0.11-0.267c-0.067-0.128-0.117-0.294-0.226-0.366  C25.438,59.023,25.397,58.507,25.347,57.97z M23.742,53.455c-0.227-0.326-0.176-0.67-0.1-1.009c0.037-0.165-0.011-0.317-0.014-0.476  c-0.006-0.28-0.122-0.325-0.357-0.197c-0.374,0.204-0.695,0.475-1.007,0.76c-0.142,0.131-0.146,0.239,0.04,0.335  c0.17,0.089,0.345,0.147,0.537,0.166C23.181,53.067,23.497,53.155,23.742,53.455z M26.441,56.375  c-0.097,0.248-0.028,0.569-0.342,0.534c-0.403-0.045-0.335,0.204-0.318,0.429c0.016,0.202,0.066,0.401,0.077,0.604  c0.02,0.36,0.205,0.581,0.573,0.736c-0.449-0.467-0.495-1.297-0.16-1.63c0.305-0.304,0.598-0.182,0.919-0.063  c0.31,0.114,0.561,0.281,0.688,0.605C27.812,56.666,26.909,56.829,26.441,56.375z M22.578,53.865  c0.532,0.036,1.188,0.494,1.23,0.915c0.093,0.937-0.771,0.781-1.372,1.025c0.435,0.184,0.75,0.018,1.063-0.042  c0.224-0.042,0.651,0.036,0.396-0.455c-0.024-0.046,0.013-0.174,0.057-0.197c0.445-0.234,0.148-0.429-0.027-0.629  c-0.125-0.143-0.264-0.272-0.377-0.422C23.295,53.727,22.985,53.71,22.578,53.865z"></path><path fill-rule="evenodd" clip-rule="evenodd" d="M79.035,61.201c-3.004,0-5.426-2.412-5.42-5.397  c0.007-2.979,2.434-5.402,5.418-5.409c2.961-0.006,5.402,2.454,5.395,5.435C84.419,58.805,82.013,61.201,79.035,61.201z   M78.094,53.806c0.121,0.041,0.166,0.151,0.227,0.248c0.139,0.22,0.186,0.625,0.602,0.277c0.063-0.054,0.252-0.054,0.316,0.058  c0.173,0.296,0.317,0.061,0.413-0.036c0.169-0.171,0.306-0.379,0.376-0.619c0.367-0.225,0.574-0.531,0.456-0.977  c-0.121-0.458,0.02-0.895,0.09-1.336c0.029-0.185,0.139-0.355,0.36-0.257c0.739,0.329,1.407,0.763,1.917,1.406  c0.125,0.157,0.087,0.315-0.093,0.396c-0.396,0.178-0.761,0.468-1.199,0.503c-0.688,0.055-0.931,0.549-1.182,1.06  c-0.083,0.26-0.358,0.528,0.049,0.764c0.042,0.024,0.072,0.153,0.046,0.2c-0.233,0.42,0.103,0.369,0.331,0.416  c0.228,0.047,0.45,0.112,0.679,0.149c0.158,0.025,0.336,0.058,0.45-0.148c-1.095-0.152-1.41-0.357-1.393-0.889  c0.014-0.4,0.647-0.912,1.322-1.013c-0.424-0.121-0.745-0.052-1.059,0.104c0.107-0.363,0.421-0.357,0.676-0.301  c0.68,0.15,1.237-0.166,1.826-0.392c0.176-0.068,0.226-0.13,0.118-0.309c-0.723-1.208-1.799-1.934-3.132-2.316  c-0.252-0.072-0.338,0.013-0.33,0.269c0.013,0.436,0.001,0.871-0.099,1.298c-0.107,0.125-0.025,0.246,0.009,0.367  c0.115,0.409-0.089,1.097-0.439,1.304c-0.267,0.158-0.633,0.202-0.842-0.036c-0.313-0.354-0.692-0.744-0.388-1.307  c0.059-0.108,0.06-0.222-0.021-0.325c-0.028-0.272-0.06-0.544-0.083-0.816c-0.079-0.911-0.085-0.916-0.95-0.567  c-0.093,0.037-0.177,0.095-0.265,0.144c-0.989,0.388-1.686,1.11-2.266,1.971c-0.141,0.209-0.032,0.268,0.14,0.342  c0.632,0.274,1.271,0.495,1.977,0.363c0.106-0.02,0.28,0.063,0.301-0.083c0.021-0.153-0.141-0.197-0.277-0.209  c-0.459-0.039-0.866-0.221-1.271-0.428c-0.302-0.154-0.277-0.309-0.092-0.539c0.143-0.178,0.449-0.198,0.502-0.395  c0.155-0.569,0.677-0.674,1.073-0.939c0.338-0.15,0.497,0.007,0.53,0.328c0.035,0.346,0.145,0.684,0.101,1.038  c-0.085,0.677,0.012,0.939,0.506,1.436C78.102,53.949,78.098,53.878,78.094,53.806z M77.989,57.225  c-0.677-0.083-1.027,0.12-1.328,0.744c-0.081,0.167-0.18,0.337-0.309,0.469c-0.458,0.474-0.517,0.468,0.108,0.935  c0.069,0.053,0.146,0.096,0.216,0.146c0.247,0.173,0.418,0.11,0.558-0.151c0.115-0.216,0.221-0.475,0.407-0.607  c0.582-0.416,0.63-0.923,0.366-1.523c0.245-0.015,0.288,0.153,0.297,0.34c0.023,0.511,0.082,1.038-0.524,1.319  c0.27-0.134,0.615-0.198,0.688-0.491c0.097-0.39,0.21-0.854,0.073-1.188c-0.071-0.173-0.503-0.561-0.751-0.543  c-0.768,0.058-1.318,0.61-1.263,1.094c0.156-0.382,0.745-0.785,1.152-0.781C77.839,56.986,77.962,57.048,77.989,57.225z   M75.907,55.92c-0.113,0.026-0.206-0.031-0.277-0.098c-0.405-0.38-0.94-0.428-1.438-0.57c-0.162-0.047-0.328-0.075-0.338,0.181  c-0.055,1.407,0.344,2.664,1.246,3.753c0.062,0.073,0.133,0.198,0.236,0.063c0.366-0.479,0.874-0.874,0.977-1.518  c0.046-0.29,0.132-0.553,0.342-0.798c-0.281,0.039-0.454,0.159-0.553,0.397c-0.183,0.442-0.525,0.762-0.86,1.085  c-0.215,0.206-0.405,0.211-0.557-0.071c-0.36-0.671-0.64-1.365-0.657-2.146c-0.005-0.216,0.079-0.318,0.27-0.287  c0.413,0.067,0.884,0.033,1.221,0.267c0.549,0.379,1.015,0.117,1.628-0.025c-0.49-0.063-0.95,0.352-1.228-0.221  c0.407,0.233,0.812,0.087,1.222,0.002c0.282-0.059,0.612-0.042,0.425-0.498c-0.031-0.076,0.006-0.191,0.093-0.226  c0.441-0.172,0.168-0.342,0.006-0.515c-0.149-0.159-0.3-0.316-0.445-0.479c-0.248-0.278-0.548-0.324-0.906-0.188  c0.51-0.091,0.729,0.269,0.982,0.58c0.378,0.462,0.201,1.018-0.385,1.146c-0.304,0.066-0.607,0.199-0.933,0.033  C75.85,55.724,75.958,55.888,75.907,55.92z M79.376,57.95c-0.073,0.546-0.037,1.02,0.449,1.408c0.254,0.203,0.377,0.578,0.539,0.886  c0.114,0.219,0.071,0.365-0.212,0.442c-0.734,0.199-1.462,0.179-2.196,0.024c-0.338-0.071-0.398-0.256-0.233-0.535  c0.236-0.397,0.4-0.844,0.789-1.137c0.124-0.093,0.164-0.227,0.186-0.379c0.064-0.461,0.102-0.923,0.055-1.391  c0.028,0.305-0.093,0.593-0.09,0.892c0.004,0.313-0.111,0.543-0.39,0.671c-0.648,0.299-0.972,0.885-1.325,1.452  c-0.117,0.187-0.059,0.258,0.107,0.319c1.319,0.489,2.637,0.519,3.949-0.028c0.116-0.048,0.227-0.096,0.121-0.248  c-0.334-0.484-0.551-1.069-1.131-1.349C79.567,58.773,79.307,58.465,79.376,57.95z M80.806,56.7  c0.367,0.188,0.842,0.284,0.882,0.799c0.051,0.651,0.479,1.069,0.844,1.536c0.196,0.251,0.343,0.248,0.536-0.002  c0.816-1.056,1.202-2.242,1.124-3.577c-0.01-0.162-0.035-0.315-0.246-0.25c-0.468,0.146-1.009,0.132-1.384,0.487  c-0.455,0.432-0.923,0.704-1.568,0.423c0.569,0.227,1.106,0.397,1.692,0.019c0.262-0.17,0.642-0.157,0.967-0.228  c0.254-0.054,0.339,0.068,0.339,0.307c0.001,0.795-0.263,1.51-0.658,2.184c-0.13,0.221-0.297,0.242-0.497,0.049  c-0.262-0.254-0.585-0.491-0.708-0.819C81.891,56.994,81.374,56.832,80.806,56.7z M79.646,52.149  c0.003-0.742-0.007-0.752-0.742-0.736c-0.044,0.001-0.088,0.002-0.131,0.002c-0.273-0.001-0.389,0.133-0.382,0.407  c0.008,0.304,0.063,0.632-0.029,0.907c-0.153,0.458,0.083,0.749,0.299,1.074c0.143,0.215,0.348,0.202,0.542,0.134  c0.281-0.098,0.616-0.768,0.522-1.058C79.648,52.638,79.646,52.396,79.646,52.149z M76.374,55.721  c0.164-0.049,0.316-0.092,0.468-0.141c0.467-0.15,0.571-0.457,0.295-0.856c-0.224-0.324-0.481-0.57-0.927-0.524  c-0.149,0.015-0.313-0.05-0.463-0.1c-0.74-0.243-0.739-0.246-0.938,0.503c-0.012,0.042-0.015,0.087-0.031,0.127  c-0.109,0.253-0.005,0.375,0.243,0.435c0.396,0.096,0.779,0.225,1.119,0.461C76.208,55.673,76.298,55.69,76.374,55.721z   M81.641,55.692c0.149,0.04,0.252-0.046,0.358-0.124c0.215-0.156,0.456-0.245,0.714-0.311c0.7-0.178,0.698-0.185,0.457-0.875  c-0.028-0.083-0.061-0.163-0.087-0.246c-0.073-0.238-0.227-0.274-0.438-0.18c-0.347,0.155-0.701,0.264-1.091,0.263  c-0.273-0.001-0.783,0.557-0.797,0.832c-0.011,0.222,0.068,0.405,0.296,0.48C81.246,55.596,81.445,55.64,81.641,55.692z   M79.887,57.776c0.046,0.36,0.067,0.723,0.447,0.935c0.133,0.074,0.232,0.22,0.323,0.35c0.49,0.698,0.506,0.698,1.169,0.142  c0.22-0.184,0.284-0.342,0.043-0.563c-0.214-0.196-0.435-0.416-0.493-0.706c-0.093-0.452-0.416-0.594-0.795-0.695  C80.205,57.138,79.88,57.39,79.887,57.776z M79.018,57.444c-0.004,0-0.009,0-0.013,0c0,0.057-0.001,0.113,0,0.169  c0.009,0.726,0.073,1.466-0.615,1.976c-0.065,0.049-0.096,0.145-0.143,0.218c-0.138,0.216-0.043,0.339,0.176,0.355  c0.317,0.024,0.638,0.021,0.956,0.018c0.168-0.002,0.386,0.055,0.472-0.134c0.079-0.177-0.086-0.322-0.181-0.462  c-0.063-0.095-0.146-0.183-0.236-0.253c-0.237-0.186-0.321-0.431-0.335-0.722C79.082,58.221,79.046,57.833,79.018,57.444z   M81.141,56.495c0.658,0.134,1.052,0.535,1.291,1.119c0.036,0.088,0.132,0.152,0.199,0.229c0.14,0.157,0.245,0.118,0.324-0.058  c0.148-0.332,0.281-0.669,0.363-1.024c0.118-0.519,0.018-0.653-0.453-0.41C82.292,56.646,81.755,56.71,81.141,56.495z   M80.299,54.056c0.338-0.543,0.78-0.893,1.439-0.923c0.123-0.006,0.245-0.087,0.362-0.143c0.138-0.066,0.157-0.164,0.043-0.272  c-0.348-0.331-0.715-0.635-1.154-0.842c-0.15-0.07-0.217-0.035-0.233,0.123c-0.016,0.145-0.082,0.306-0.039,0.429  C80.941,53.069,80.638,53.553,80.299,54.056z M76.871,56.487c-0.573,0.227-1.106,0.297-1.617-0.111  c-0.126-0.101-0.317-0.123-0.452-0.026c-0.159,0.114-0.065,0.291-0.03,0.441c0.043,0.183,0.07,0.374,0.146,0.543  c0.095,0.212,0.105,0.579,0.369,0.566c0.233-0.012,0.41-0.304,0.501-0.553c0.13-0.358,0.367-0.569,0.734-0.661  C76.65,56.653,76.8,56.635,76.871,56.487z M77.39,53.577c-0.187-0.329-0.146-0.651-0.072-0.979c0.021-0.095,0.023-0.199,0.011-0.297  c-0.063-0.474-0.137-0.519-0.532-0.273c-0.258,0.159-0.499,0.349-0.73,0.545c-0.352,0.297-0.336,0.353,0.097,0.527  C76.563,53.263,77.065,53.16,77.39,53.577z M81.58,57.848c-0.081-0.579-0.798-1.235-1.342-1.167  c-0.285,0.035-0.693,0.342-0.763,0.603c-0.192,0.719,0.132,1.342,0.624,1.491c-0.324-0.307-0.503-0.968-0.337-1.355  c0.104-0.239,0.33-0.381,0.572-0.43C80.663,56.924,81.354,57.395,81.58,57.848z"></path><path d="M94.597,55.772c0.437-0.106,0.504-0.252,0.273-0.629c-0.051-0.083-0.082-0.141-0.045-0.231  c0.175-0.438,0.061-0.895,0.09-1.341c0.011-0.172-0.04-0.321-0.198-0.409c-0.307-0.17-0.387-0.463-0.409-0.773  c-0.022-0.321-0.171-0.513-0.484-0.582c-0.238-0.054-0.41-0.154-0.491-0.426c-0.255-0.865-0.521-1.727-0.822-2.577  c-0.143-0.402-0.08-0.603,0.365-0.626c0.238-0.013,0.412-0.12,0.346-0.384c-0.088-0.349-0.182-0.701-0.326-1.028  c-0.336-0.754-0.957-1.309-1.436-1.963c-0.125-0.171-0.316-0.181-0.513-0.182c-0.334-0.002-0.676,0.022-1-0.04  c-0.998-0.191-1.984-0.441-2.983-0.626c-1.128-0.209-2.256-0.556-3.396-0.53c-1.727,0.04-3.38-0.329-5.053-0.615  c-1.792-0.306-3.584-0.597-5.389-0.823c-0.742-0.093-1.481-0.033-2.22-0.088c-1.415-0.105-2.827-0.284-4.243-0.322  c-1.858-0.05-3.722-0.086-5.574,0.162c-0.904,0.121-1.825,0.2-2.541,0.874c-0.054,0.05-0.119,0.11-0.191,0.07  c-0.099-0.054-0.044-0.15-0.032-0.232c0.075-0.532,0.172-1.062,0.141-1.603c-0.027-0.468-0.369-0.899-0.75-0.942  c-0.616-0.069-0.917,0.142-1.063,0.753c-0.055,0.226-0.132,0.455-0.137,0.683c-0.019,0.928-0.243,1.913,0.701,2.637  c-0.555,0.043-1.043,0.084-1.532,0.119c-1.422,0.099-2.844,0.195-4.266,0.29c-1.639,0.109-3.277,0.23-4.917,0.317  c-1.264,0.066-2.531,0.077-3.796,0.136c-0.271,0.013-0.405-0.065-0.483-0.312c-0.096-0.305-0.214-0.604-0.316-0.907  c-0.112-0.333-0.355-0.353-0.631-0.261c-0.272,0.089-0.287,0.292-0.204,0.53c0.082,0.233,0.146,0.473,0.232,0.704  c0.068,0.184,0.026,0.279-0.176,0.292c-0.392,0.026-0.783,0.052-1.174,0.084c-0.257,0.021-0.365-0.079-0.369-0.348  c-0.006-0.392-0.01-0.806-0.214-1.145c-0.208-0.347-0.064-0.471,0.223-0.619c1.719-0.888,3.407-1.837,5.207-2.561  c0.574-0.231,0.726-0.632,0.5-1.211c-0.048-0.121-0.078-0.249-0.123-0.372c-0.281-0.767-1.204-1.342-2-1.169  c-1.304,0.282-2.589,0.53-3.854,1.084c-4.272,1.873-8.449,3.915-12.456,6.302c-0.268,0.16-0.521,0.239-0.818,0.214  c-0.784-0.065-1.564-0.092-2.35,0.022c-1.797,0.262-3.594,0.514-5.379,0.854c-2.286,0.435-4.553,0.943-6.781,1.626  c-1.55,0.475-3.046,1.075-4.46,1.858c-0.583,0.323-1.141,0.708-1.104,1.566c0.012,0.291-0.108,0.76-0.416,0.954  c-0.235,0.148-0.274,0.297-0.288,0.52c-0.015,0.231-0.061,0.462-0.063,0.694C5.2,53.747,5,54.251,5.115,54.757  c0.21,0.924,0.262,1.839-0.011,2.756c-0.206,0.69-0.149,0.74,0.564,0.901c1.207,0.274,2.429,0.241,3.65,0.247  c0.317,0.001,0.59,0.075,0.864,0.239c0.33,0.199,0.626,0.466,1.056,0.48c1.235,0.04,2.471,0.1,3.705,0.163  c0.74,0.038,1.479,0.1,2.218,0.149c0.168,0.011,0.304,0.048,0.374,0.235c0.09,0.244,0.313,0.223,0.52,0.209  c0.221-0.016,0.272-0.155,0.298-0.354c0.034-0.252,1.053-0.688,1.333-0.595c1.184,1.885,3.28,3.142,5.666,3.142  c2.179,0,4.117-1.048,5.338-2.665l0.001,0.001c0.134-0.153,0.264-0.201,0.488-0.174c0.605,0.073,1.216,0.131,1.825,0.131  c5.053,0.006,10.107,0.05,15.16-0.021c7.613-0.107,15.225-0.016,22.837-0.075c0.689-0.006,1.367-0.24,2.069-0.164  c0.126,0.014,0.246,0.014,0.349,0.074c1.194,1.833,3.26,3.049,5.606,3.049c2.249,0,4.241-1.117,5.454-2.825  c0.084-0.032,0.178-0.033,0.274-0.035c1.63-0.027,3.26-0.06,4.891-0.081c0.296-0.004,0.613,0,0.842-0.171  c0.525-0.394,1.142-0.505,1.749-0.634c0.544-0.115,0.916-0.381,1.122-0.911c0.115-0.295,0.307-0.561,0.462-0.841  c0.129-0.231,0.247-0.465,0.581-0.432c0.126,0.013,0.218-0.074,0.235-0.211c0.014-0.111-0.017-0.203-0.129-0.249  c-0.095-0.039-0.211-0.069-0.169-0.206C94.376,55.768,94.502,55.796,94.597,55.772z M93.437,52.686  c0.016,0.214-0.079,0.239-0.242,0.197c-0.351-0.089-0.699-0.195-1.056-0.246c-0.443-0.063-0.439-0.391-0.477-0.703  c-0.02-0.17,0.115-0.178,0.232-0.185c0.173-0.011,0.348-0.008,0.521-0.018C93.193,51.687,93.434,51.915,93.437,52.686z   M92.834,50.468c0.262,0.869,0.245,0.834-0.68,0.775c-0.648-0.042-0.911-0.337-1.035-0.906c-0.044-0.201-0.034-0.304,0.191-0.324  c0.287-0.025,0.573-0.061,0.984-0.106C92.646,49.797,92.731,50.129,92.834,50.468z M90.646,49.566  c0.517-0.018,1.021,0.082,1.533,0.171c-0.337,0.041-0.673,0.104-1.011,0.117c-0.478,0.017-0.953,0.034-1.427,0.095  c-0.114,0.015-0.263,0.011-0.286-0.13c-0.029-0.179,0.139-0.14,0.242-0.162C90.011,49.588,90.327,49.577,90.646,49.566z   M90.106,45.892c0.354-0.145,0.619-0.077,0.854,0.163c0.347,0.354,0.632,0.755,0.869,1.187c0.065,0.12,0.324,0.297,0.082,0.416  c-0.174,0.084-0.408,0.058-0.63-0.122c-0.429-0.346-0.654-0.785-0.83-1.28C90.401,46.115,90.306,45.975,90.106,45.892z   M92.447,49.414c-0.057,0.15-0.197,0.108-0.3,0.086c-0.299-0.066-0.603-0.06-0.905-0.076c-0.349-0.019-0.709-0.473-0.661-0.815  c0.018-0.131,0.109-0.154,0.216-0.165c0.287-0.031,0.573-0.064,0.815-0.092C92.025,48.343,92.575,49.077,92.447,49.414z   M90.24,45.135c0.917-0.351,0.985-0.33,1.547,0.481c0.419,0.606,0.806,1.232,1.105,1.911c0.119,0.269,0.031,0.345-0.222,0.336  c-0.219,0.035-0.313-0.097-0.396-0.267c-0.25-0.51-0.542-0.996-0.905-1.435c-0.274-0.332-0.568-0.626-1.059-0.576  c-0.164,0.017-0.356-0.026-0.382-0.21C89.902,45.187,90.117,45.182,90.24,45.135z M89.773,45.618  c0.053,0.185-0.141,0.139-0.231,0.167c-0.775,0.247-1.572,0.428-2.313,0.779c-0.038,0.018-0.08,0.031-0.113,0.043  c-0.084-0.019-0.151-0.053-0.17-0.129c-0.024-0.096,0.055-0.123,0.123-0.148c0.789-0.298,1.578-0.594,2.367-0.893  C89.621,45.367,89.734,45.48,89.773,45.618z M88.908,45.314c0.008,0.035,0.017,0.069,0.023,0.104  c-0.762,0.281-1.522,0.564-2.285,0.843c-0.146,0.053-0.285-0.009-0.426-0.049c-2.348-0.663-4.728-1.037-7.178-1.087  c-1.955-0.04-3.848,0.303-5.756,0.587c-1.64,0.244-3.275,0.483-4.94,0.499c-2.313,0.023-4.626,0.108-6.938,0.163  c-0.515,0.012-0.536-0.007-0.308-0.455c0.171-0.335,0.351-0.665,0.476-1.021c0.054-0.155,0.172-0.224,0.333-0.236  c0.275-0.021,0.549-0.06,0.824-0.069c2.894-0.099,5.787-0.18,8.68-0.295c2.356-0.094,4.713-0.195,7.069-0.137  c2.997,0.075,5.979,0.348,8.928,0.91c0.256,0.049,0.517,0.072,0.774,0.114C88.427,45.224,88.667,45.271,88.908,45.314z   M77.639,43.319c0.066-0.136,0.088-0.307,0.328-0.256c0.481,0.101,0.969,0.172,1.454,0.257c0.285,0.05,0.569,0.102,0.854,0.153  c-0.851,0.131-1.688-0.011-2.526,0.012C77.642,43.488,77.582,43.432,77.639,43.319z M80.768,43.762  c0.537,0.002,1.081,0.024,1.609-0.052c1.373-0.197,2.683,0.163,4.009,0.386c0.454,0.077,0.907,0.164,1.385,0.25  c-1.176,0.687-2.318,0.168-3.454,0.059c-0.996-0.096-1.989-0.249-2.99-0.29c-1.307-0.053-2.615-0.069-3.923-0.108  c-0.115-0.003-0.317,0.076-0.325-0.101c-0.008-0.178,0.191-0.186,0.338-0.185C78.533,43.735,79.65,43.758,80.768,43.762z   M77.15,42.932c0.087,0.015,0.185,0.016,0.227,0.104c0.053,0.113-0.04,0.186-0.101,0.266c-0.144,0.188-0.347,0.185-0.555,0.183  c-1.615-0.02-3.23-0.042-4.846-0.053c-0.393-0.002-0.784,0.031-1.177,0.055c-0.104,0.006-0.279-0.048-0.281,0.114  c-0.001,0.169,0.174,0.112,0.278,0.112c0.83,0.001,1.66-0.006,2.49-0.005c1.063,0,2.126,0.003,3.189,0.014  c0.109,0.001,0.307-0.078,0.308,0.118c0.002,0.159-0.175,0.166-0.309,0.168c-0.262,0.003-0.523,0.003-0.786,0.002  c-2.213-0.01-4.423,0.083-6.632,0.193c-1.437,0.072-2.877,0.081-4.312,0.173c-0.872,0.056-1.744,0.052-2.616,0.09  c-0.126,0.006-0.273,0.07-0.367-0.059c-0.1-0.137-0.271-0.28-0.227-0.445c0.039-0.143,0.255-0.105,0.39-0.121  c0.578-0.068,1.16-0.069,1.74-0.107c2.263-0.148,4.529-0.247,6.793-0.38c0.898-0.053,1.795-0.146,2.692-0.23  c0.194-0.018,0.472-0.006,0.506-0.239c0.038-0.268-0.256-0.31-0.444-0.405c-0.078-0.04-0.157-0.075-0.343-0.164  C74.308,42.498,75.731,42.694,77.15,42.932z M63.084,41.793c1.295,0.009,2.592-0.04,3.884,0.017c1.313,0.058,2.622,0.212,3.933,0.33  c0.331,0.03,0.673-0.058,0.994,0.078c0.426,0.181,0.849,0.368,1.273,0.552c-3.9,0.524-7.805,0.598-11.728,0.849  c0.671-0.303,0.874-0.94,1.14-1.523C62.689,41.854,62.838,41.792,63.084,41.793z M56.902,43.387  c-0.423-0.585-0.269-1.256-0.252-1.901c0.006-0.243,0.091-0.484,0.126-0.728c0.085-0.589,0.323-0.611,0.855-0.607  c0.326,0.002,0.637,0.468,0.601,0.846c-0.061,0.619-0.125,1.237-0.209,1.853c-0.018,0.126-0.019,0.224,0.057,0.322  c0.229,0.048,0.354-0.145,0.477-0.258c0.739-0.692,1.672-0.815,2.608-0.938c0.314-0.042,0.633-0.064,0.949-0.089  c0.268-0.022,0.303,0.091,0.179,0.308c-0.514,0.896-1.159,1.575-2.303,1.556c-0.652-0.011-1.306,0.047-1.958,0.07  c-0.108,0.004-0.254,0.069-0.302-0.084c-0.031-0.102,0.073-0.178,0.13-0.262c0.065-0.099,0.271-0.095,0.21-0.285  c-0.106,0.035-0.213,0.07-0.35,0.114c0.093-0.669,0.177-1.333,0.278-1.994c0.046-0.299,0.025-0.579-0.143-0.833  c-0.186-0.282-0.559-0.304-0.649-0.018c-0.258,0.814-0.328,1.643,0.008,2.461c0.043,0.104,0.108,0.208,0.241,0.228  c-0.334-0.75-0.399-1.523-0.208-2.32c0.033-0.136,0.04-0.319,0.235-0.312c0.172,0.007,0.311,0.117,0.314,0.303  c0.016,0.795-0.009,1.587-0.328,2.336c0.05,0.217,0.063,0.527-0.097,0.595C57.167,43.839,57.025,43.557,56.902,43.387z   M53.329,44.497c2.348-0.164,4.693-0.351,7.039-0.527c0.316-0.024,0.667-0.225,0.906,0.171c0.052,0.086,0.146,0.163,0.109,0.272  c-0.047,0.14-0.184,0.122-0.297,0.124c-0.713,0.012-1.426,0.013-2.139,0.031c-1.978,0.051-3.956,0.091-5.933,0.167  c-1.962,0.076-3.923,0.151-5.907,0.154C49.182,44.758,51.257,44.641,53.329,44.497z M41.213,43.838  c-0.062-0.167-0.009-0.286,0.148-0.35c0.153-0.062,0.295-0.028,0.359,0.134c0.133,0.334,0.264,0.669,0.372,1.012  c0.08,0.251-0.124,0.233-0.214,0.244c-0.205,0.003-0.316-0.032-0.366-0.186C41.417,44.407,41.317,44.122,41.213,43.838z   M41.224,45.218c2.038-0.001,4.073-0.094,6.108-0.136c1.875-0.038,3.749-0.114,5.624-0.161c2.106-0.052,4.212-0.147,6.318-0.218  c0.608-0.02,1.218-0.011,1.827-0.03c0.266-0.008,0.333,0.068,0.244,0.33c-0.146,0.432-0.427,0.792-0.605,1.205  c-0.085,0.196-0.289,0.17-0.46,0.179c-1.321,0.071-2.645,0.086-3.969,0.075c-0.228-0.002-0.47-0.057-0.671,0.112  c0.109,0.132,0.254,0.114,0.399,0.1c1.398-0.142,2.803-0.034,4.203-0.086c0.146-0.005,0.291,0.003,0.392,0.136  c0.293-0.186,0.614-0.213,0.955-0.216c2.327-0.025,4.655-0.043,6.982-0.103c2.2-0.057,4.364-0.436,6.528-0.8  c2.34-0.394,4.678-0.427,7.03-0.086c1.327,0.193,2.632,0.474,3.919,0.835c1.035,0.292,1.646,1.094,2.206,1.941  c0.123,0.186,0.04,0.233-0.151,0.274c-1.165,0.249-2.327,0.511-3.49,0.773c-0.182,0.041-0.316,0.004-0.479-0.108  c-2.983-2.056-6.105-2.158-9.334-0.632c-0.114,0.054-0.25,0.096-0.287,0.246c0.477-0.092,0.88-0.366,1.327-0.533  c2.326-0.867,4.614-0.796,6.864,0.248c0.471,0.219,0.908,0.51,1.319,0.85c-0.432,0.267-0.619,0.264-1.072-0.015  c-1.303-0.801-2.725-1.164-4.244-1.086c-1.521,0.078-2.955,0.492-4.215,1.375c-0.369,0.258-0.729,0.308-1.184,0.234  c0.321-0.465,0.892-0.613,1.186-1.06c-0.525,0.114-0.872,0.5-1.239,0.842c-0.195,0.183-0.394,0.26-0.658,0.267  c-1.891,0.05-3.78,0.11-5.67,0.173c-0.261,0.008-0.521,0.046-0.781,0.071c-0.247,0.023-0.329-0.07-0.212-0.301  c0.118-0.233,0.255-0.459,0.354-0.7c0.262-0.639-0.006-1.059-0.705-1.088c-0.93-0.039-1.86-0.063-2.79-0.079  c-0.728-0.012-1.456-0.009-2.184,0.004c-0.336,0.006-0.402-0.085-0.267-0.407c0.12-0.286,0.349-0.55,0.278-0.899  c-0.247,0.523-0.698,0.521-1.19,0.507c-0.902-0.026-1.806-0.003-2.708-0.003c-0.424,0-0.788,0.127-1.098,0.429  c-0.309,0.301-0.658,0.444-1.123,0.467c-2.925,0.142-5.853-0.024-8.776,0.098c-2.036,0.085-4.075-0.002-6.108,0.142  c-0.083,0.006-0.167,0.017-0.322,0.033c0.173,0.144,0.316,0.11,0.442,0.108c2.867-0.037,5.734-0.046,8.6-0.128  c2.432-0.069,4.863-0.008,7.293-0.055c0.474-0.009,0.867,0.292,1.352,0.303c0.739,0.017,1.479,0.182,2.167-0.243  c0.069-0.042,0.168-0.043,0.254-0.053c0.28-0.03,0.408,0.013,0.263,0.351c-0.761,1.765-1.614,3.483-2.478,5.198  c-0.1,0.197-0.251,0.248-0.459,0.261c-1.696,0.109-3.392,0.223-5.087,0.346c-1.503,0.109-3.005,0.229-4.508,0.35  c-1.012,0.082-2.023,0.175-3.035,0.266c-0.051,0.005-0.101,0.031-0.151,0.048c0.004,0.035,0.008,0.07,0.012,0.106  c4.313-0.333,8.625-0.666,12.993-1.003c-0.298,0.689-0.674,1.243-0.996,1.825c-0.095,0.173-0.266,0.154-0.426,0.152  c-0.961-0.013-1.916,0.143-2.879,0.089c-0.124-0.007-0.269-0.027-0.351,0.114c0.798,0.031,1.596,0.081,2.394-0.035  c0.154-0.023,0.317,0.023,0.475,0.01c1.506-0.132,3.013-0.27,4.519-0.41c0.05-0.005,0.096-0.058,0.144-0.087  c-1.048-0.043-2.081,0.157-3.124,0.204c-0.153,0.007-0.347,0.105-0.443-0.047c-0.087-0.137,0.086-0.258,0.154-0.379  c1.248-2.236,2.358-4.54,3.402-6.877c0.134-0.3,0.301-0.405,0.624-0.401c1.28,0.014,2.562-0.007,3.842,0.003  c0.435,0.004,0.87,0.05,1.302,0.1c0.415,0.049,0.602,0.335,0.442,0.704c-0.745,1.723-1.582,3.399-2.539,5.015  c-0.424,0.717-1.083,1.119-1.884,1.298c-0.51,0.113-1.019,0.235-1.542,0.272c-0.088,0.007-0.174,0.023-0.229,0.104  c2.23-0.035,3.351-0.492,4.226-2.28c0.486-0.992,1.011-1.967,1.511-2.953c0.098-0.194,0.195-0.327,0.449-0.333  c2.138-0.05,4.276-0.114,6.414-0.172c0.058-0.001,0.114,0.005,0.263,0.014c-0.74,0.908-1.343,1.84-1.684,2.906  c-0.333,1.04-0.537,2.105-0.54,3.291c0.263-0.205,0.203-0.394,0.211-0.556c0.08-1.663,0.548-3.203,1.472-4.594  c0.224-0.337,0.492-0.645,0.752-0.956c0.264-0.316,0.623-0.139,1.044-0.188c-0.581,0.58-1.09,1.104-1.47,1.743  c-0.699,1.177-1.041,2.454-1.145,3.807c-0.006,0.087,0,0.175-0.003,0.262c-0.021,0.74-0.021,0.737-0.747,0.788  c-1.567,0.109-3.139,0.133-4.709,0.176c-2.588,0.07-5.173,0.223-7.762,0.265c-1.685,0.027-3.368,0.093-5.051,0.152  c-2.53,0.089-5.063,0.102-7.591,0.198c-1.76,0.067-3.521-0.01-5.277,0.095c-1.877,0.11-3.755,0.025-5.632,0.07  c-0.116,0.003-0.232-0.006-0.348-0.02c-0.062-0.007-0.113-0.056-0.104-0.117c0.008-0.05,0.045-0.114,0.087-0.134  c0.063-0.029,0.141-0.036,0.212-0.034c0.845,0.021,1.686-0.054,2.529-0.087c1.831-0.07,3.666-0.086,5.494-0.197  c1.596-0.097,3.193-0.131,4.789-0.206c1.657-0.077,3.311-0.197,4.965-0.318c0.03-0.002,0.056-0.057,0.084-0.087  c-0.743-0.109-1.477,0.02-2.212,0.092c-0.1,0.01-0.2,0.055-0.298,0.053c-1.599-0.045-3.191,0.088-4.785,0.168  c-2.292,0.116-4.582,0.241-6.874,0.343c-1.219,0.054-2.439,0.067-3.659,0.092c-0.132,0.003-0.33,0.062-0.352-0.15  c-0.019-0.179,0.163-0.226,0.292-0.278c0.771-0.313,1.602-0.404,2.394-0.641c-0.017-0.021-0.033-0.043-0.05-0.063  c-0.834,0.058-1.628,0.295-2.415,0.556c-0.253,0.083-0.322,0.06-0.333-0.221c-0.113-2.893-0.263-5.783-0.265-8.678  c0-0.393,0.1-0.525,0.51-0.53c1.382-0.014,2.767-0.022,4.144-0.102c1.352-0.078,2.702-0.035,4.053-0.11  c1.751-0.097,3.508-0.085,5.262-0.131c2.529-0.066,5.057-0.191,7.588-0.178c0.127,0.001,0.267,0.023,0.358-0.105  c-1.293-0.012-2.586-0.103-3.877,0.052c-0.115,0.014-0.233,0.012-0.35,0.009c-2.052-0.051-4.102,0.075-6.152,0.119  c-2.252,0.048-4.503,0.127-6.756,0.169c-0.351,0.007-0.479-0.003-0.452-0.464c0.034-0.573,0.173-0.827,0.76-0.75  c0.079,0.01,0.188-0.019,0.247-0.07C39.696,45.075,40.503,45.218,41.224,45.218z M55.998,48.113c-0.08-0.001-0.262,0.03-0.298-0.065  c-0.033-0.091,0.03-0.154,0.091-0.214c0.237-0.238,0.512-0.337,0.847-0.359c1.03-0.07,2.054-0.106,3.086-0.074  c0.148,0.004,0.449-0.159,0.43,0.158c-0.017,0.251-0.108,0.506-0.484,0.507C59.174,48.065,58.694,48,58.2,48c-0.146,0-0.2,0-0.2,0  s0,0.118,0,0.116C57,48.116,56.623,48.118,55.998,48.113z M71.029,57.911c-0.431,0.005-0.379-0.308-0.411-0.57  c-0.029-0.236,0.073-0.338,0.318-0.347c0.397-0.016,0.393,0.254,0.413,0.635C71.36,57.744,71.326,57.908,71.029,57.911z   M36.587,44.387c0.733-0.144,1.484,0.022,2.219-0.134c0.211-0.045,0.376,0.063,0.369,0.313c-0.007,0.224,0.058,0.46-0.086,0.705  c-0.572-0.678-1.32-0.668-2.08-0.615c-0.13,0.009-0.261,0.059-0.388,0.049c-0.175-0.013-0.416,0.103-0.504-0.131  c-0.078-0.206,0.034-0.409,0.201-0.547C36.319,44.024,36.319,44,36.32,44c0.002,0,0.004,0,0.006,0c0.49-1,1.103-0.853,1.817-0.994  c0.247-0.049,0.461,0.047,0.633,0.225c0.152,0.158,0.328,0.362,0.266,0.57c-0.067,0.221-0.33,0.108-0.505,0.12  c-0.736,0.046-1.473,0.079-2.21,0.116c-0.001,0.001-0.002,0.002-0.003,0.003c-0.002,0.001-0.004,0.003-0.006,0.005  C36.236,44.289,36.275,44.448,36.587,44.387z M37.365,46.528c-0.253-0.052-0.504-0.125-0.727-0.269  c-0.255-0.165-0.261-0.417-0.178-0.654c0.087-0.248,0.293-0.083,0.448-0.063c0.2,0.026,0.398,0.067,0.596,0.105  c0.245,0.046,0.395,0.171,0.356,0.448C37.903,46.474,37.703,46.599,37.365,46.528z M36.941,45.193  c-0.188-0.006-0.377-0.029-0.561-0.067c-0.055-0.011-0.121-0.09-0.136-0.15c-0.025-0.099,0.07-0.116,0.141-0.115  c0.691,0.007,1.395-0.193,2.067,0.119c0.136,0.063,0.367,0.082,0.314,0.29c-0.046,0.178-0.243,0.232-0.535,0.219  C37.879,45.354,37.425,45.21,36.941,45.193z M34.157,45.085c-0.459,0.351-1.012,0.106-1.538,0.129  c1.084-0.923,2.23-1.739,3.417-2.496c1.188-0.759,2.393-1.494,3.6-2.224c0.422-0.255,0.869-0.47,1.31-0.692  c0.325-0.164,0.66-0.289,0.774-0.703c0.049-0.181,1.248-0.518,1.416-0.428c0.19,0.102,0.216,0.297,0.233,0.488  c0.019,0.213-0.07,0.365-0.271,0.449c-0.873,0.365-1.71,0.803-2.555,1.228c-0.98,0.494-1.877,1.109-2.79,1.703  C36.521,43.34,35.325,44.193,34.157,45.085z M35.894,44.964c0.042,0.162-0.105,0.178-0.227,0.179c-0.305,0.001-0.609,0-1.053,0  c0.41-0.314,0.718-0.552,1.028-0.788c0.056-0.042,0.15-0.122,0.187-0.062C35.955,44.499,35.836,44.739,35.894,44.964z M35.11,45.464  c0.131-0.001,0.262-0.005,0.393-0.008c0.624-0.014,0.633-0.015,0.699,0.618c0.02,0.194,0.143,0.263,0.271,0.36  c0.383,0.289,0.876,0.254,1.301,0.42c-0.004,0.043-0.008,0.086-0.012,0.129c-0.4,0-0.8-0.009-1.2,0.002  c-0.797,0.022-1.595,0.052-2.392,0.088c-0.296,0.014-0.395-0.121-0.351-0.396c0.005-0.028,0.004-0.058,0.007-0.086  C33.972,45.49,33.989,45.475,35.11,45.464z M45.149,39.357c0.109,0.145,0.01,0.268-0.054,0.401c-0.101,0.212-0.27,0.329-0.479,0.416  c-1.815,0.748-3.548,1.665-5.26,2.621C39.169,42.9,39,42.971,38.789,42.86c-0.292-0.152-0.624-0.021-1.035-0.124  c0.844-0.526,1.603-1.026,2.387-1.481c0.59-0.341,1.218-0.617,1.82-0.937c0.894-0.474,1.849-0.764,2.827-0.995  C44.916,39.293,45.048,39.224,45.149,39.357z M44.361,38.18c0.158,0.039,0.291,0.105,0.394,0.246  c0.355,0.484,0.316,0.616-0.251,0.778c-0.098,0.028-0.194,0.058-0.292,0.086c-0.585,0.167-0.56,0.161-0.702-0.45  c-0.073-0.312,0.064-0.378,0.298-0.432c0.191-0.044,0.405-0.034,0.542-0.215c-0.128-0.051-0.254-0.04-0.379,0.014  c-0.557,0.241-1.061,0.094-1.542-0.215C43.121,37.585,43.822,37.654,44.361,38.18z M42.748,38.415  c-0.708,0.505-1.399,0.488-2.118-0.055C41.474,37.955,41.868,37.964,42.748,38.415z M39.066,39.029  c0.304-0.126,1.577,0.145,1.75,0.396c0.161,0.234-0.106,0.255-0.216,0.308c-0.812,0.397-1.577,0.874-2.348,1.339  c-1.693,1.021-3.377,2.057-5.063,3.092c-0.204,0.125-0.407,0.222-0.653,0.196c-0.229-0.023-0.427,0.067-0.619,0.176  c-0.452,0.256-0.925,0.368-1.456,0.358c-0.9-0.016-1.804-0.073-2.702,0.069c-0.123,0.02-0.251,0.003-0.377,0.003  C31.151,42.684,35.029,40.699,39.066,39.029z M6.605,50.232c0.635-0.541,1.348-0.959,2.112-1.292  c3.06-1.331,6.292-2.048,9.547-2.685c2.039-0.398,4.092-0.722,6.157-0.929c1.005-0.101,2.035-0.008,3.049,0.065  c1.018,0.073,2.035,0.061,3.152,0.083c-4.671,0.27-9.208,0.791-13.683,1.79c-0.165,0.037-0.354,0.032-0.469,0.195  c0.677,0,1.317-0.215,1.969-0.349c2.264-0.467,4.548-0.798,6.845-1.042c1.835-0.195,3.672-0.358,5.517-0.438  c0.9-0.039,1.798-0.102,2.697-0.165c0.314-0.022,0.438,0.068,0.318,0.392c-0.06,0.163-0.096,0.335-0.129,0.506  c-0.152,0.775-0.173,0.788-1.002,0.702c-1.229-0.126-2.447-0.313-3.661-0.553c-2.72-0.538-5.407-0.395-8.043,0.492  c-0.119,0.04-0.263,0.054-0.317,0.202c0.758-0.072,1.45-0.403,2.192-0.553c1.995-0.404,3.981-0.391,5.973-0.018  c1.456,0.273,2.91,0.566,4.399,0.573c0.263,0.001,0.363,0.098,0.358,0.361c-0.011,0.655-0.009,1.31-0.001,1.965  c0.002,0.239-0.091,0.345-0.334,0.343c-0.684-0.005-1.368-0.002-2.052,0c-0.17,0.001-0.3-0.062-0.429-0.174  c-0.383-0.336-0.803-0.625-1.241-0.885c-0.15-0.088-0.298-0.187-0.487-0.158c0.316,0.351,0.787,0.479,1.133,0.789  c0.125,0.112,0.298,0.179,0.351,0.396c-0.373,0.055-0.699,0.054-1.03-0.178c-2.483-1.737-6.211-1.595-8.582,0.234  c-0.307,0.237-0.619,0.268-1.045,0.193c0.529-0.508,1.077-0.895,1.667-1.219c0.485-0.266,1.003-0.456,1.528-0.627  c0.148-0.048,0.32-0.052,0.428-0.192c-0.893,0.021-1.639,0.46-2.382,0.876c-0.415,0.232-0.806,0.525-1.158,0.846  c-0.287,0.262-0.595,0.394-0.967,0.417c-1.013,0.064-2.027,0.127-3.04,0.189c-0.278,0.017-0.324-0.069-0.193-0.331  c0.231-0.466,0.618-0.758,1.025-1.042c0.151-0.106,0.348-0.16,0.43-0.351c-0.445,0.025-0.728,0.333-1.029,0.6  c-0.164,0.145-0.296,0.212-0.538,0.141c-0.56-0.164-1.126,0.015-1.685,0.072c-1.648,0.171-3.271,0.499-4.878,0.901  c-0.048,0.012-0.104-0.004-0.253-0.014c0.83-0.604,1.669-0.983,2.534-1.32c1.086-0.423,2.203-0.746,3.324-1.06  c0.148-0.042,0.322-0.042,0.428-0.188c-0.332-0.061-0.633,0.078-0.936,0.166c-1.787,0.52-3.6,1.002-5.151,2.078  c-0.559,0.388-1.124,0.684-1.761,0.896c-0.42,0.14-0.6-0.214-0.872-0.35C6.265,50.524,6.495,50.325,6.605,50.232z M14.908,50  c-0.698,0-1.397,0-2.198,0c0.263,0,0.502,0.171,0.678,0.309c-0.092,0.177-0.311,0.05-0.431,0.23c0.286-0.002,0.489,0.09,0.62,0.379  c0.084,0.185,0.37,0.11,0.57,0.107c0.092-0.001,0.228-0.061,0.245,0.092c0.013,0.118-0.11,0.183-0.204,0.198  c-0.226,0.039-0.456,0.052-0.698,0.075c0.073,0.15,0.227,0.052,0.36,0.19c-0.339,0.165-0.689,0.239-0.969,0.047  c-0.2-0.139-0.379-0.425-0.126-0.732c0.079-0.095-0.013-0.245-0.122-0.283c-0.242-0.084-0.084,0.113-0.12,0.182  c-0.049,0.093-0.163,0.118-0.266,0.112c-0.114-0.007-0.204-0.05-0.13-0.194c0.081-0.157-0.065-0.115-0.125-0.135  c-0.767-0.261-1.534,0.122-1.771,0.893c-0.171,0.558-0.673,0.389-1.048,0.492c-0.268,0.073-0.416-0.034-0.378-0.331  c-0.356,0.036-0.353,0.385-0.503,0.596c-0.084,0.117-0.113,0.265-0.306,0.25c-0.144-0.01-0.238-0.036-0.152-0.204  c0.328-0.639,0.737-1.22,1.29-1.682c0.167-0.139,0.408-0.142,0.623-0.176c1.532-0.417,3.1-0.637,4.672-0.833  c0.043-0.005,0.089-0.012,0.131-0.004c0.14,0.026,0.378-0.088,0.378,0.155c0,0.198-0.22,0.142-0.354,0.143  c-0.888,0.01-1.773,0.047-2.654,0.162c-0.127,0.017-0.268-0.105-0.347,0.034C12.684,50.128,13.792,50,14.908,50z M8.452,54.215  c0.04,0,0.093,0.017,0.117,0.045c0.129,0.152-0.223,0.987-0.434,1.021c-0.471,0.075-0.943,0.142-1.449,0.217  c0-0.073-0.008-0.117,0.001-0.157c0.085-0.377,0.046-0.94,0.349-1.069C7.442,54.098,7.974,54.218,8.452,54.215z M7.156,53.662  c0.097-0.241,0.183-0.488,0.302-0.719c0.197-0.383,0.571-0.158,0.819-0.227c0.085,0,0.133-0.012,0.172,0.002  c0.194,0.067,0.506-0.173,0.584,0.154c0.084,0.353-0.246,0.788-0.585,0.822c-0.374,0.038-0.747,0.072-1.111,0.165  C7.153,53.906,7.082,53.847,7.156,53.662z M7.101,55.843c0.228,0.021,0.462-0.027,0.693-0.049c0.267-0.024,0.369,0.061,0.314,0.353  c-0.095,0.507-0.005,0.581,0.52,0.531c0.771-0.074,1.542-0.145,2.313-0.216c-1.238,0.257-2.496,0.338-3.746,0.475  c-0.345,0.037-0.636-0.231-0.641-0.56C6.549,56.015,6.685,55.804,7.101,55.843z M10.21,55.73c0.02,0,0.039,0.032,0.059,0.051  c-0.012,0.021-0.022,0.057-0.036,0.059c-0.021,0.003-0.057-0.012-0.067-0.029C10.143,55.768,10.159,55.729,10.21,55.73z   M7.163,55.622c2.028-0.31,4.062-0.566,6.115-0.65C11.241,55.199,9.227,55.648,7.163,55.622z M12.997,53.64  C11.232,53.735,9.481,54,7.709,54c-0.07,0-0.141,0-0.21,0c0.532,0,1.097-0.185,1.647-0.247c1.455-0.167,2.913-0.28,4.37-0.423  c0.072-0.008,0.145-0.002,0.218,0c0.084,0.002,0.2-0.01,0.206,0.105c0.006,0.116-0.089,0.16-0.205,0.167  C13.489,53.619,13.243,53.626,12.997,53.64z M17.938,55.73c-0.033,1.032,0.012,2.063,0.093,3.094  c0.012,0.148,0.132,0.371-0.157,0.414c-0.284,0.042-0.358-0.165-0.379-0.371c-0.051-0.506-0.097-1.013-0.108-1.521  c-0.021-0.973-0.014-1.945,0.068-2.916c-0.208,0.303-0.204,0.655-0.211,0.998c-0.026,1.135-0.015,2.27,0.097,3.399  c0.028,0.289-0.02,0.418-0.354,0.414c-1.733-0.021-3.466-0.02-5.199-0.025c-0.286-0.001-0.54-0.087-0.769-0.263  c-0.969-0.745-2.048-1.128-3.288-1.054c-0.653,0.039-1.31,0.011-1.965,0.003c-0.131-0.002-0.294,0.069-0.392-0.104  c0.107-0.157,0.266-0.091,0.4-0.094c1.92-0.04,3.84-0.068,5.761-0.114c1.701-0.041,3.401-0.099,5.102-0.154  c0.173-0.006,0.45,0.06,0.418-0.229c-0.027-0.242-0.259-0.263-0.543-0.211c0.136,0.096,0.221,0.155,0.367,0.258  c-2.043,0.142-4.015,0.107-6.002,0.183c-0.033-0.038,0.021-0.087,0.042-0.131c0.064-0.132,0.101-0.263-0.08-0.315  c-0.154-0.045-0.213,0.078-0.221,0.2c-0.016,0.27-0.192,0.289-0.397,0.281c-1.427-0.056-2.85,0.102-4.276,0.086  c-0.073-0.001-0.146,0.004-0.219-0.001c-0.098-0.005-0.212,0.027-0.271-0.084c-0.013-0.023,0.014-0.086,0.041-0.108  c0.104-0.09,0.156-0.019,0.246,0.055c0.169,0.14,0.186-0.025,0.176-0.137c-0.169-2.004,0.232-3.918,0.909-5.789  c0.109-0.301,0.44-0.463,1.147-0.57c-0.048,0.328-0.415,0.492-0.419,0.833c0.245-0.082,0.273-0.405,0.654-0.535  c-0.301,0.534-0.564,0.964-0.792,1.412c-0.617,1.217-0.998,2.498-1.015,3.875c-0.003,0.245,0.117,0.429,0.325,0.589  c-0.409,0.07-0.563-0.118-0.551-0.453c0.018-0.506,0.06-1.012,0.092-1.517c-0.27,0.579-0.31,1.188-0.226,1.811  c0.042,0.314,0.301,0.336,0.533,0.321c0.724-0.046,1.448-0.092,2.167-0.179c0.864-0.104,1.729-0.19,2.588-0.341  c1.108-0.192,1.833-0.825,2.266-1.829c0.196-0.453,0.379-0.914,0.539-1.381c0.301-0.883,0.727-1.71,1.111-2.556  c0.137-0.301,0.359-0.438,0.72-0.449c0.928-0.027,1.855-0.108,2.783-0.165c0.157-0.009,0.314-0.001,0.542-0.001  c-0.339,0.458-0.665,0.843-0.902,1.287c-0.107,0.201-0.286,0.375-0.251,0.633c0.346-0.499,0.691-0.997,1.038-1.496  c0.245-0.354,0.557-0.544,1.061-0.39c-0.312,0.375-0.644,0.708-0.915,1.09C18.416,52.761,17.987,54.185,17.938,55.73z   M31.728,56.429c-0.388,3.177-3.094,5.639-6.376,5.639c-2.25,0-4.228-1.157-5.376-2.907c0,0-1.042-2.299-1.011-3.638  c0.079-3.375,2.956-6.439,6.815-6.214c3.229,0.188,6.048,2.96,5.98,6.424C31.764,55.968,31.751,56.199,31.728,56.429z   M30.224,50.254c-0.029-0.025-0.043-0.068-0.064-0.104c0.61-0.271,0.973,0.143,1.366,0.469c0.011-0.192-0.178-0.294-0.231-0.523  c0.692,0,1.367-0.004,2.042,0.002c0.254,0.002,0.245,0.196,0.248,0.376c0.01,0.582,0.05,1.163,0.064,1.743  c0.035,1.425,0.126,2.846,0.195,4.269c0.011,0.219-0.002,0.436-0.131,0.664c-0.224-0.144-0.155-0.362-0.155-0.542  c-0.004-1.156-0.178-2.288-0.48-3.4c-0.086-0.315-0.158-0.652-0.43-0.884c0.133,0.682,0.431,1.318,0.531,2.013  c0.11,0.761,0.239,1.518,0.232,2.29c-0.002,0.311-0.013,0.617,0.348,0.77c0.094,0.039,0.176,0.169,0.05,0.239  c-0.265,0.147-0.57,0.133-0.85,0.067c-0.24-0.057-0.186-0.298-0.185-0.48c0.008-0.739,0.017-1.476-0.083-2.213  C32.436,53.127,31.685,51.509,30.224,50.254z M70.592,59.217c-0.044,0.122-0.203,0.086-0.317,0.087  c-0.335,0.003-0.67,0.001-1.005,0.002c-7.342,0.01-14.684-0.022-22.025,0.044c-4.617,0.042-9.233,0.021-13.85,0.047  c-0.626,0.004-0.626,0-0.625-0.611c0-0.088,0.009-0.177-0.001-0.263c-0.042-0.344,0.084-0.476,0.452-0.507  c1.223-0.105,2.445-0.029,3.667-0.05c2.693-0.047,5.387-0.066,8.08-0.115c2.312-0.042,4.624-0.104,6.936-0.167  c1.875-0.051,3.749-0.114,5.624-0.178c2.472-0.082,4.944-0.161,7.416-0.259c1.656-0.065,3.312-0.165,4.968-0.236  c0.477-0.021,0.558,0.089,0.564,0.544c0.004,0.259-0.09,0.362-0.351,0.379c-1.613,0.102-3.229,0.114-4.842,0.174  c-2.138,0.078-4.277,0.104-6.414,0.185c-1.325,0.05-2.649,0-3.972,0.063c-3.39,0.162-6.783-0.005-10.171,0.115  c-1.806,0.064-3.613-0.019-5.415,0.087c-1.747,0.102-3.494,0.005-5.24,0.069c-0.346,0.013-0.69,0.052-1.036,0.078  c-0.004,0.038-0.009,0.075-0.014,0.112c0.371,0,0.743,0.023,1.111-0.003c1.847-0.135,3.698-0.009,5.545-0.09  c2.853-0.127,5.708-0.005,8.561-0.091c1.776-0.054,3.556,0.01,5.328-0.08c1.747-0.089,3.493-0.026,5.238-0.073  c2.415-0.063,4.83-0.109,7.244-0.193c1.337-0.046,2.671-0.163,4.01-0.157c0.167,0.001,0.418-0.062,0.453,0.15  C70.563,58.587,70.705,58.901,70.592,59.217z M71.036,59.306c-0.155-0.024-0.231-0.087-0.248-0.243  c-0.02-0.187-0.055-0.372-0.078-0.559c-0.031-0.245,0.008-0.428,0.319-0.442c0.297-0.014,0.381,0.152,0.396,0.398  c0.008,0.115,0.002,0.231,0.002,0.353C71.543,59.166,71.473,59.373,71.036,59.306z M79.025,62.224c-2.231,0-4.196-1.138-5.348-2.863  c0,0-1.078-2.304-1.056-3.653c0.056-3.331,2.808-6.354,6.487-6.301c3.546,0.051,6.371,3.002,6.312,6.52  c-0.024,1.407-1.308,3.795-1.308,3.795C82.938,61.242,81.097,62.224,79.025,62.224z M93.59,56.92  c-0.232,0.418-0.461,0.839-0.699,1.254c-0.065,0.114-0.177,0.2-0.306,0.233c-0.583,0.148-1.169,0.288-1.857,0.457  c0.678-0.499,1.101-1.091,1.565-1.641c0.306-0.362,0.631-0.628,1.145-0.574C93.659,56.673,93.687,56.746,93.59,56.92z   M94.302,54.601c-0.951,0.003-1.345,0.676-1.778,1.328l0.004-0.004c-0.11,0.368-0.561,0.501-0.625,0.9  c0.402-0.205,0.621-0.594,0.908-0.913c0.205-0.228,0.405-0.446,0.743-0.496c-0.413,0.433-0.806,0.88-1.17,1.351  c-0.257,0.332-0.568,0.625-0.808,0.968c-0.559,0.799-1.339,1.108-2.27,1.1c0.198-0.192,0.563-0.171,0.708-0.47  c-0.66,0.166-1.267,0.492-1.935,0.643c-0.512,0.115-0.518,0.135-0.51-0.384c0.024-1.645,0.032-3.289-0.45-4.883  c-0.147-0.487-0.192-1.033-0.622-1.4c0.229,0.822,0.564,1.61,0.717,2.461c0.242,1.357,0.217,2.722,0.217,4.088  c0,0.37-0.289,0.383-0.514,0.394c-0.316,0.016-0.198-0.246-0.189-0.418c0.123-2.3,0.035-4.563-1.068-6.67  c-0.44-0.841-1.061-1.525-1.748-2.16c-0.071-0.066-0.142-0.134-0.226-0.212c0.389-0.213,0.673-0.171,0.99,0.13  c0.664,0.629,1.201,1.341,1.63,2.143c0.045,0.084,0.058,0.202,0.18,0.228c-0.002-0.488-0.338-0.823-0.573-1.195  c-0.293-0.467-0.629-0.909-1.054-1.272c-0.188-0.161-0.306-0.301,0.071-0.381c1.122-0.236,2.243-0.482,3.36-0.741  c0.329-0.076,0.391,0.157,0.508,0.353c0.62,1.036,1.037,2.171,1.594,3.239c0.25,0.48,0.636,0.731,1.144,0.851  c0.871,0.205,1.766,0.119,2.645,0.224c0.217,0.025,0.476-0.063,0.508,0.309C94.752,54.426,94.726,54.599,94.302,54.601z"></path></svg>