<svg fill="#046C9A" xmlns="http://www.w3.org/2000/svg" xmlns:xlink="http://www.w3.org/1999/xlink" version="1.1" x="0px" y="0px" viewBox="0 0 64 64" enable-background="new 0 0 64 64" xml:space="preserve"><g><path d="M19.008,56.058H16.67V12.593c1-0.782,1.644-1.999,1.644-3.367c0-2.36-1.913-4.274-4.274-4.274S9.766,6.865,9.766,9.226   c0,1.368,0.644,2.585,1.644,3.367v43.465h-2.76c-1.068,0-1.976,0.908-1.976,2.029v0.961h14.31v-0.961   C20.984,56.966,20.129,56.058,19.008,56.058z"></path><path d="M19.042,15.752v29.582c12.794,6.294,25.486-10.943,38.284-1.479V14.267C44.528,4.91,31.836,22.149,19.042,15.752z"></path></g></svg>