<svg fill="#009B3B" xmlns="http://www.w3.org/2000/svg" xmlns:xlink="http://www.w3.org/1999/xlink" version="1.1" x="0px" y="0px" viewBox="0 0 50 50" enable-background="new 0 0 50 50" xml:space="preserve"><polygon points="10.083,8.856 11.583,8.856 11.583,7.473 12.967,7.473 12.967,5.973 11.583,5.973 11.583,4.589 10.083,4.589   10.083,5.973 8.7,5.973 8.7,7.473 10.083,7.473 "></polygon><polygon points="43.908,26.501 43.908,24.785 45.625,24.785 45.625,23.285 43.908,23.285 43.908,21.569 42.408,21.569   42.408,23.285 40.692,23.285 40.692,24.785 42.408,24.785 42.408,26.501 "></polygon><path d="M25.147,33.999c-0.231-0.047-0.469,0.018-0.645,0.174l-4.015,3.557l-4.322-3.573l-0.955,1.156l4.816,3.982  c0.284,0.236,0.7,0.229,0.976-0.016l3.753-3.326l3.582,7.405l1.351-0.653l-4.013-8.297C25.573,34.196,25.377,34.044,25.147,33.999z"></path><path d="M47.844,48.875l-9.15-21.243c-0.104-0.241-0.326-0.41-0.585-0.446c-0.262-0.039-0.52,0.065-0.686,0.269l-2.015,2.47  l-3.012-5.351c-0.133-0.236-0.383-0.382-0.653-0.382H30.72l0.778-7.554l-0.012-0.001c0.003-0.026,0.016-0.049,0.016-0.076v-6.296  l3.523-5.484c0.571-0.892,0.381-2.091-0.437-2.731c-0.827-0.647-2.09-0.417-2.666,0.481l-2.839,4.42  c-0.097-0.012-0.192-0.019-0.289-0.019h-3.523c-0.096,0-0.193,0.006-0.289,0.019l-2.84-4.42c-0.576-0.898-1.838-1.129-2.665-0.481  c-0.817,0.64-1.009,1.839-0.436,2.732l3.522,5.484v6.296c0,0.027,0.013,0.049,0.016,0.076l-0.012,0.001l0.778,7.554H21.02v-5.805  v-6.555c0-0.253-0.128-0.489-0.34-0.628c-0.212-0.138-0.48-0.161-0.711-0.059l-7.468,3.277c-0.273,0.119-0.449,0.389-0.449,0.687  s0.176,0.567,0.448,0.687l7.02,3.081v5.315h-0.781c-0.272,0-0.523,0.148-0.656,0.387L12.73,34.26l-2.036-1.609  c-0.18-0.142-0.417-0.196-0.639-0.141c-0.224,0.053-0.41,0.206-0.507,0.414L2.164,48.856c-0.107,0.232-0.09,0.504,0.049,0.72  c0.137,0.216,0.375,0.347,0.632,0.347h44.311c0.253,0,0.487-0.127,0.626-0.338C47.921,49.374,47.944,49.107,47.844,48.875z   M14.668,15.109l4.852-2.129v4.259L14.668,15.109z M20.305,3.97c-0.151-0.235-0.105-0.581,0.098-0.739  c0.158-0.125,0.361-0.074,0.479,0.11l3.129,4.871c0.19,0.298,0.565,0.419,0.896,0.296c0.136-0.051,0.256-0.076,0.366-0.076h3.523  c0.11,0,0.23,0.025,0.365,0.076c0.33,0.124,0.705,0.002,0.896-0.296l3.129-4.872c0.117-0.183,0.322-0.232,0.478-0.11  c0.204,0.159,0.25,0.505,0.099,0.74l-3.641,5.669c-0.078,0.121-0.119,0.262-0.119,0.406v5.766h-5.938v-5.766  c0-0.144-0.041-0.285-0.119-0.406L20.305,3.97z M24.146,17.311h5.775l-0.709,6.88h-1.429v-4.145h-1.5v4.145h-1.429L24.146,17.311z   M4.019,48.422l6.491-14.005l1.983,1.568c0.173,0.137,0.397,0.192,0.613,0.146c0.216-0.043,0.402-0.18,0.509-0.372l5.566-10.069  h12.123l3.085,5.482l-3.87,4.745l1.163,0.948l6.122-7.506l8.211,19.062H4.019z"></path><path d="M27.033,6.473c1.764,0,3.197-1.435,3.197-3.197c0-1.764-1.434-3.198-3.197-3.198s-3.198,1.435-3.198,3.198  C23.835,5.039,25.27,6.473,27.033,6.473z M27.033,1.578c0.937,0,1.697,0.762,1.697,1.698c0,0.936-0.761,1.697-1.697,1.697  s-1.698-0.761-1.698-1.697C25.335,2.339,26.097,1.578,27.033,1.578z"></path><path d="M39.222,17.041h5.859c1.506,0,2.731-1.225,2.731-2.731c0-1.413-1.079-2.579-2.457-2.717  c-0.543-1.317-1.847-2.221-3.308-2.221c-1.645,0-3.059,1.144-3.453,2.699c-1.09,0.28-1.897,1.271-1.897,2.446  C36.697,15.909,37.829,17.041,39.222,17.041z M39.192,13.492c0.018,0.001,0.034,0.002,0.05,0.002c0.394,0,0.719-0.303,0.748-0.695  c0.079-1.081,0.982-1.927,2.058-1.927c0.973,0,1.826,0.691,2.03,1.642c0.082,0.387,0.488,0.639,0.879,0.58  c0.711-0.103,1.355,0.495,1.355,1.216c0,0.679-0.553,1.231-1.231,1.231h-5.859c-0.564,0-1.024-0.459-1.024-1.024  C38.197,13.961,38.641,13.508,39.192,13.492z"></path><path d="M4.747,23.881h5.154c1.374,0,2.491-1.118,2.491-2.492c0-1.271-0.956-2.323-2.188-2.474c-0.502-1.165-1.668-1.96-2.971-1.96  c-1.472,0-2.737,1.01-3.112,2.391c-0.972,0.274-1.686,1.167-1.686,2.225C2.437,22.844,3.473,23.881,4.747,23.881z M4.726,20.76  c0.442,0.017,0.758-0.29,0.788-0.694c0.065-0.903,0.821-1.611,1.721-1.611c0.813,0,1.525,0.577,1.694,1.372  c0.083,0.386,0.474,0.639,0.862,0.583c0.576-0.081,1.102,0.395,1.102,0.979c0,0.547-0.444,0.992-0.991,0.992H4.747  c-0.446,0-0.811-0.364-0.811-0.811C3.937,21.13,4.288,20.771,4.726,20.76z"></path></svg>